<svg xmlns="http://www.w3.org/2000/svg" viewBox="0 0 1600 900" role="img" aria-labelledby="title desc">
  <title id="title">GR 3D Relativity Simulator placeholder</title>
  <desc id="desc">A dark spacetime grid bends around a black hole with colorful orbital paths.</desc>
  <defs>
    <radialGradient id="bg" cx="54%" cy="48%" r="72%">
      <stop offset="0" stop-color="#18204a"/>
      <stop offset="0.38" stop-color="#070a18"/>
      <stop offset="1" stop-color="#02030a"/>
    </radialGradient>
    <radialGradient id="holeGlow" cx="50%" cy="50%" r="50%">
      <stop offset="0.54" stop-color="#000000"/>
      <stop offset="0.63" stop-color="#ff8a3d" stop-opacity="0.9"/>
      <stop offset="0.75" stop-color="#a855f7" stop-opacity="0.42"/>
      <stop offset="1" stop-color="#38bdf8" stop-opacity="0"/>
    </radialGradient>
    <linearGradient id="titleGrad" x1="0" x2="1">
      <stop offset="0" stop-color="#ff4fb8"/>
      <stop offset="0.43" stop-color="#7c5cff"/>
      <stop offset="1" stop-color="#38d5ff"/>
    </linearGradient>
    <filter id="glow" x="-60%" y="-60%" width="220%" height="220%">
      <feGaussianBlur stdDeviation="8" result="blur"/>
      <feMerge><feMergeNode in="blur"/><feMergeNode in="SourceGraphic"/></feMerge>
    </filter>
  </defs>
  <rect width="1600" height="900" fill="url(#bg)"/>
  <g opacity="0.65">
    <circle cx="180" cy="110" r="2" fill="#fff"/><circle cx="260" cy="78" r="1.8" fill="#90d5ff"/><circle cx="1220" cy="102" r="2.2" fill="#fff"/><circle cx="1340" cy="170" r="1.8" fill="#c084fc"/><circle cx="950" cy="68" r="1.4" fill="#fff"/>
    <ellipse cx="250" cy="135" rx="190" ry="42" fill="#2f7fff" opacity="0.16" filter="url(#glow)"/>
  </g>
  <g transform="translate(0 120)" opacity="0.62" stroke="#6bbcff" stroke-width="2" fill="none">
    <path d="M-80 610 C260 472 548 440 800 510 C1034 575 1290 514 1680 414" opacity="0.65"/>
    <path d="M-80 545 C260 425 555 393 800 456 C1035 518 1292 464 1680 375" opacity="0.52"/>
    <path d="M-80 480 C266 377 566 347 800 402 C1039 458 1300 415 1680 335" opacity="0.45"/>
    <path d="M-80 415 C260 332 580 300 800 347 C1050 400 1305 365 1680 295" opacity="0.38"/>
    <path d="M-80 350 C280 285 596 256 800 294 C1064 340 1320 317 1680 254" opacity="0.32"/>
    <path d="M-80 285 C308 235 620 216 800 241 C1068 280 1325 266 1680 215" opacity="0.25"/>
    <path d="M190 140 C206 270 217 416 230 760" opacity="0.35"/><path d="M360 125 C358 272 360 430 365 760" opacity="0.42"/><path d="M530 116 C515 273 505 430 500 760" opacity="0.55"/><path d="M700 112 C672 270 650 430 633 760" opacity="0.7"/><path d="M870 116 C898 280 914 440 928 760" opacity="0.7"/><path d="M1040 126 C1072 286 1096 440 1128 760" opacity="0.55"/><path d="M1210 140 C1245 290 1280 440 1330 760" opacity="0.42"/><path d="M1380 160 C1428 304 1480 472 1568 760" opacity="0.32"/>
  </g>
  <g filter="url(#glow)">
    <ellipse cx="850" cy="505" rx="328" ry="82" fill="none" stroke="#ff4fb8" stroke-width="6" opacity="0.88"/>
    <ellipse cx="850" cy="505" rx="420" ry="104" fill="none" stroke="#fbbf24" stroke-width="4" opacity="0.75" transform="rotate(-7 850 505)"/>
    <ellipse cx="850" cy="505" rx="530" ry="136" fill="none" stroke="#38bdf8" stroke-width="4" opacity="0.72" transform="rotate(4 850 505)"/>
  </g>
  <circle cx="850" cy="455" r="178" fill="url(#holeGlow)" filter="url(#glow)"/>
  <circle cx="850" cy="455" r="134" fill="#000"/>
  <g filter="url(#glow)">
    <circle cx="525" cy="520" r="30" fill="#ff4f93"/><circle cx="798" cy="600" r="34" fill="#38d5ff"/><circle cx="1072" cy="518" r="24" fill="#f8fafc"/><circle cx="1318" cy="412" r="34" fill="#ffd166"/>
    <g fill="#ffd166" opacity="0.75">
      <circle cx="650" cy="482" r="3"/><circle cx="685" cy="548" r="2.5"/><circle cx="724" cy="505" r="2.8"/><circle cx="1008" cy="575" r="3"/><circle cx="1180" cy="492" r="2.8"/><circle cx="1258" cy="545" r="3"/><circle cx="610" cy="620" r="2"/><circle cx="1045" cy="645" r="2.4"/>
    </g>
  </g>
  <rect x="0" y="642" width="1600" height="258" fill="url(#bg)" opacity="0.78"/>
  <text x="76" y="770" font-family="Inter, Pretendard, Arial, sans-serif" font-size="74" font-weight="800" fill="white"><tspan fill="url(#titleGrad)">GR 3D</tspan> Relativity Simulator</text>
  <text x="80" y="828" font-family="Inter, Pretendard, Arial, sans-serif" font-size="26" letter-spacing="6" fill="#9bdcff">EXPLORE GRAVITY · SIMULATE SPACETIME · VISUALIZE THE UNIVERSE</text>
</svg>
