<svg xmlns="http://www.w3.org/2000/svg" viewBox="0 0 512 512" role="img" aria-labelledby="title desc">
  <title id="title">Busan Il Science High School logo image</title>
  <desc id="desc">A cleaned SVG rendition of the Busan Il Science High School emblem for the portfolio education section.</desc>
  <defs>
    <filter id="softShadow" x="-20%" y="-20%" width="140%" height="140%">
      <feDropShadow dx="0" dy="10" stdDeviation="12" flood-color="#000" flood-opacity="0.16"/>
    </filter>
    <path id="topArc" d="M 79 263 A 177 177 0 0 1 433 263"/>
    <path id="bottomArc" d="M 433 263 A 177 177 0 0 1 79 263"/>
  </defs>

  <rect width="512" height="512" rx="40" fill="transparent"/>

  <g filter="url(#softShadow)">
    <circle cx="256" cy="256" r="206" fill="#fff" opacity="0.02"/>

    <text font-family="Pretendard Variable, Arial, sans-serif" font-size="42" font-weight="900" fill="#666" letter-spacing="7">
      <textPath href="#topArc" startOffset="50%" text-anchor="middle">부산일과학고등학교</textPath>
    </text>
    <text font-family="Pretendard Variable, Arial, sans-serif" font-size="42" font-weight="900" fill="#666" letter-spacing="4">
      <textPath href="#bottomArc" startOffset="50%" text-anchor="middle">BUSAN IL SCIENCE HIGH SCHOOL</textPath>
    </text>

    <circle cx="61" cy="256" r="8" fill="#666"/>
    <circle cx="451" cy="256" r="8" fill="#666"/>

    <g transform="translate(256 253)">
      <path d="M-92 91 C-84 22 -52 -28 7 -61 C62 -92 116 -87 155 -50 C110 -52 75 -34 52 4 C33 36 6 64 -35 86 C-56 97 -75 99 -92 91Z" fill="#3fb3a3"/>
      <path d="M-126 58 C-119 -11 -84 -63 -28 -87 C-52 -50 -50 -11 -22 30 C-61 45 -94 55 -126 58Z" fill="#3fb3a3"/>
      <path d="M90 -97 C125 -65 135 -24 118 19 C101 62 68 88 21 97 L-22 97 C9 72 12 42 -11 9 C-39 -31 -37 -66 -5 -97 L90 -97Z" fill="#2f2c7f"/>
      <path d="M-35 -96 H71 C91 -96 103 -82 100 -65 C97 -44 78 -36 49 -31 C86 -20 110 1 119 32 C126 57 121 79 105 98 C128 85 144 68 154 48 C174 9 162 -38 125 -69 C91 -98 54 -109 13 -108 H-35Z" fill="#2f2c7f"/>
      <path d="M-5 100 C29 74 35 46 12 13 C-12 -24 -2 -50 37 -68 C17 -36 24 -13 58 2 C89 16 103 40 96 70 C89 101 57 119 11 121 H-83 C-56 116 -30 109 -5 100Z" fill="#3fb3a3"/>
      <path d="M-83 103 C-45 91 -12 76 14 57" fill="none" stroke="#fff" stroke-width="15" stroke-linecap="round" opacity="0.92"/>
      <path d="M-3 -78 C-19 -41 -13 -9 14 17 C35 37 40 59 29 84" fill="none" stroke="#fff" stroke-width="17" stroke-linecap="round" opacity="0.92"/>
    </g>

    <text x="256" y="374" text-anchor="middle" font-family="Pretendard Variable, Arial, sans-serif" font-size="31" font-weight="800" fill="#666">SINCE 2012</text>
  </g>
</svg>
