<svg xmlns="http://www.w3.org/2000/svg" viewBox="0 0 320 320" role="img" aria-labelledby="title desc">
  <title id="title">POSTECH school image</title>
  <desc id="desc">A simple portfolio badge image for Pohang University of Science and Technology.</desc>
  <defs>
    <linearGradient id="postech-bg" x1="0" y1="0" x2="1" y2="1">
      <stop offset="0" stop-color="#C41230"/>
      <stop offset="0.55" stop-color="#E85D04"/>
      <stop offset="1" stop-color="#FFBA08"/>
    </linearGradient>
    <filter id="soft-shadow" x="-20%" y="-20%" width="140%" height="140%">
      <feDropShadow dx="0" dy="12" stdDeviation="12" flood-color="#000000" flood-opacity="0.22"/>
    </filter>
  </defs>
  <rect width="320" height="320" rx="72" fill="#140A0D"/>
  <circle cx="248" cy="68" r="92" fill="#ffffff" opacity="0.08"/>
  <circle cx="72" cy="258" r="110" fill="#ffffff" opacity="0.06"/>
  <g filter="url(#soft-shadow)">
    <path d="M160 42c65.2 0 118 52.8 118 118s-52.8 118-118 118S42 225.2 42 160 94.8 42 160 42Z" fill="url(#postech-bg)"/>
    <path d="M103 181c18-62 65-91 116-87-22 11-37 28-44 50 20 0 37 7 50 21-32-4-58 5-77 27-13 15-29 25-48 30 0-14 1-28 3-41Z" fill="#fff" opacity="0.92"/>
  </g>
  <text x="160" y="248" text-anchor="middle" font-family="Inter, system-ui, -apple-system, BlinkMacSystemFont, Segoe UI, sans-serif" font-size="34" font-weight="900" fill="#ffffff" letter-spacing="1.5">POSTECH</text>
</svg>
